<svg id="Layer_1" data-name="Layer 1" xmlns="http://www.w3.org/2000/svg" viewBox="0 0 1080 1080"><defs><style>.cls-1{fill:#fff;}</style></defs><path class="cls-1" d="M863.49,448.78c-2.28-2.38-2.28-2.38-110.88-2.38-59.76,0-109.06-.39-109.64-.77-1.32-.85-5-8-8.36-16.05-1.32-3.33-3.52-8.18-4.74-10.93-3.81-8.55-8.76-19.76-13.89-31.64-2.65-6.28-5.68-13.21-6.74-15.39a41.32,41.32,0,0,1-1.81-4.47c0-.19-1.41-3.52-3.23-7.4-2.84-6.08-6.36-14.16-20.22-45.89-1.81-4.18-4.18-9.52-5.22-11.88s-4-8.94-6.47-14.74-5.32-12.34-6.47-14.72-2.94-6.84-4.28-10-3.6-8.45-5.22-11.87-4.18-9.5-5.89-13.59a62.14,62.14,0,0,0-4.94-9.78,6.5,6.5,0,0,0-8.65-1.15c-.85.67-6,11.51-11.39,24-12.73,29.35-32.12,73.62-37,84.55-2.08,4.76-8,18.16-13.1,29.92S465.21,388,464.06,390.34s-6.75,15.2-12.43,28.49-11.23,24.89-12.06,25.86c-1.44,1.61-7.14,1.71-111.17,1.71-109.64,0-109.64,0-111.92,2.38-2.77,2.65-3,5.22-.76,7.88.94,1,10.26,7.78,20.7,14.9s25.85,18,34.22,23.75,23.55,16.34,33.71,23.48S330.58,537,340,543.58c16.45,11.51,19.48,13.22,19.48,11.12s8.94-18.91,13.21-24.8c4.56-6.26,4.56-6.26-24.9-28.49-16.15-12.27-29.72-23.1-30.2-24.24-.95-2.56.85-6.17,3.88-7.69,1.82-1,18.92-1.25,76.41-1.13,61.37,0,74.29-.3,75.33-1.34.76-.67,5.61-11.12,10.83-23.09s13.4-30.5,18.14-41.24,10.17-23.27,12.27-28c17.66-40.85,20.43-46.55,23-48,5.89-3.23,6.17-2.77,31.73,56.52,2.84,6.84,6.28,14.56,7.51,17.1,3.69,8.18,22.71,51.78,26.5,60.82,6,14.34-3.61,12.82,81.52,12.82,81.61,0,77.63-.28,77.63,6.17a5.83,5.83,0,0,1-2.47,5.15c-2.57,2-2.57,2,25.46,2s27.94,0,34.11-3.72c3.32-2,14.81-8.64,25.37-14.81C863.31,458,865.87,455.89,865.87,452A8.07,8.07,0,0,0,863.49,448.78Z"/><path class="cls-1" d="M311.79,720.52c-.34-1-.62-1.9-.84-2.71L213.8,828.62a4.39,4.39,0,0,0,6.56,5L397,736.52c-40.87-.07-67.29-.22-68.18-.42A22.81,22.81,0,0,1,311.79,720.52Z"/><path class="cls-1" d="M837.08,514.14c-6-5.33,3.77-6-106.44-5.93-25.41,0-57.21.08-97.07.13-191.92.28-191.92.28-198.86,2.48-19.23,6-35.35,17.41-45.72,32.37a74.42,74.42,0,0,0-4.16,6.77c-5,9.4-26.13,59.66-27.27,65.25-2.47,11.41,3.24,24.42,13.68,31.56,1.16.78,2,1.45,3,2,5.95,3.34,16.84,3.23,123,3.31,108.8.09,114.67.18,118.11,1.8,5.11,2.47,7.6,6.56,8.07,12.82.37,5.9-1.62,10-6.75,13.79-1.78,1.34-2.36,1.77-44.21,2.07-18.31.11-44.52.2-82.17.35q-7.31,0-15.19,0c-84.86.3-117.87.41-131.62.93-8.76.33-9.7.82-11.27,1.63a24.29,24.29,0,0,0-11.2,14c-1.49,4.91-1.75,7.14-.75,10.87.23.82.5,1.71.84,2.72a22.8,22.8,0,0,0,17,15.57c.89.21,27.3.35,68.17.43,33.68.07,77.15.09,124.23,0,46.63,0,81.78,0,108.39-.09,11.75,0,21.82,0,30.5-.09,51.07-.21,53.19-.69,57.77-1.92,23.38-6.45,41.81-20.42,52.93-40.27,1.62-2.86,13.1-29.37,22.51-52,3.42-8.18,4-14.83,2.1-21.67-3.52-11.88-11.51-19.76-23.09-22.8-4.66-1.23-21.39-1.42-119.34-1.42-9.87,0-18.88,0-27.13,0-78.08,0-87.36-.31-90-1.5-7.88-3.72-10.25-13.87-5.42-23.08,3-5.9,5.91-8.37,11.32-9.61,2-.52,54.43-.9,125.66-.93q7.22,0,14.66,0c136.63,0,136.63,0,140.51-2C846.39,544.34,849.14,524.68,837.08,514.14Z"/><path class="cls-1" d="M816,661.19c-.47-.37-4.07,6.94-8.16,16.36-8.09,18.81-13.87,28.88-21.67,37.71-4.65,5.41-5.13,6.38-5.69,11.69-3.53,33.25-23.87,61-53.31,72.67-12.54,5-20.61,6.38-39,6.93-15.29.4-18.53.21-30.88-2-37.44-6.45-74.48-22.05-114.57-48.27-8.75-5.6-8.75-5.6-34.22-5.5-13.95,0-25.55.09-25.64.28-.67.57,21.95,18.62,36.57,29.18,14.93,10.72,42.47,28.49,44.27,28.49a59.92,59.92,0,0,1,5.43,2.93c7.49,4.48,27.55,14.35,37.81,18.74,30.79,13,55.29,19.48,87.89,23.27,7.3.95,26.6.48,35.72-.67C783,846,816.28,814.36,826,762.1c2.56-13.4,2.28-43.7-.37-60.52C823.4,688.37,817.32,662.53,816,661.19Z"/><path class="cls-1" d="M336,424c26.62,0,26.62,0,30.41-7.42a84.62,84.62,0,0,1,31-32.95c12-7.14,30.13-12.36,45.15-13,7.12-.37,7.12-.37,16.34-21.56,5.13-11.78,9.22-21.46,9-21.58s-4.55-1-9.68-2c-13.77-2.38-49-2.38-60.33,0-41.8,8.82-69.36,32.39-82.28,70.21-2.1,6.27-6.08,23.85-6.08,27C309.5,423.81,314,424,336,424Z"/></svg>